<?xml version="1.0" standalone="no"?><svg xmlns="http://www.w3.org/2000/svg" viewBox="0 0 1440 320"><path fill="#ffd700" fill-opacity="1" d="M0,32L20,48C40,64,80,96,120,101.3C160,107,200,85,240,69.3C280,53,320,43,360,69.3C400,96,440,160,480,192C520,224,560,224,600,197.3C640,171,680,117,720,112C760,107,800,149,840,176C880,203,920,213,960,192C1000,171,1040,117,1080,133.3C1120,149,1160,235,1200,250.7C1240,267,1280,213,1320,197.3C1360,181,1400,203,1420,213.3L1440,224L1440,320L1420,320C1400,320,1360,320,1320,320C1280,320,1240,320,1200,320C1160,320,1120,320,1080,320C1040,320,1000,320,960,320C920,320,880,320,840,320C800,320,760,320,720,320C680,320,640,320,600,320C560,320,520,320,480,320C440,320,400,320,360,320C320,320,280,320,240,320C200,320,160,320,120,320C80,320,40,320,20,320L0,320Z"></path></svg>