<?xml version="1.0" standalone="no"?><svg xmlns="http://www.w3.org/2000/svg" viewBox="0 0 1440 320"><path fill="#ffd700" fill-opacity="1" d="M0,32L20,48C40,64,80,96,120,101.3C160,107,200,85,240,69.3C280,53,320,43,360,69.3C400,96,440,160,480,192C520,224,560,224,600,197.3C640,171,680,117,720,112C760,107,800,149,840,176C880,203,920,213,960,192C1000,171,1040,117,1080,133.3C1120,149,1160,235,1200,250.7C1240,267,1280,213,1320,197.3C1360,181,1400,203,1420,213.3L1440,224L1440,0L1420,0C1400,0,1360,0,1320,0C1280,0,1240,0,1200,0C1160,0,1120,0,1080,0C1040,0,1000,0,960,0C920,0,880,0,840,0C800,0,760,0,720,0C680,0,640,0,600,0C560,0,520,0,480,0C440,0,400,0,360,0C320,0,280,0,240,0C200,0,160,0,120,0C80,0,40,0,20,0L0,0Z"></path></svg>